<?xml version="1.0" encoding="utf-8"?>
<!-- Generator: Adobe Illustrator 28.2.0, SVG Export Plug-In . SVG Version: 6.00 Build 0)  -->
<svg version="1.1" id="Layer_1" xmlns="http://www.w3.org/2000/svg" xmlns:xlink="http://www.w3.org/1999/xlink" x="0px" y="0px"
	 viewBox="0 0 1366 768" style="enable-background:new 0 0 1366 768;" xml:space="preserve">
<path d="M1360.8,35.8v696.3c0,15.6-11.8,28.3-26.4,28.3H31.6c-14.6,0-26.4-12.7-26.4-28.3V35.8c0-15.6,11.8-28.3,26.4-28.3h517.9
	c14.6,0,26.4,12.7,26.4,28.3v0c0,15.6,11.8,28.3,26.4,28.3h161.3c14.6,0,26.4-12.7,26.4-28.3v0c0-15.6,11.8-28.3,26.4-28.3h517.9
	C1348.9,7.5,1360.8,20.2,1360.8,35.8z"/>
</svg>
